<svg xmlns="http://www.w3.org/2000/svg" xmlns:xlink="http://www.w3.org/1999/xlink" viewBox="991.207 287.003 507.955 370.866">
  <defs>
    <style>
      .cls-1 {
        fill: none;
      }

      .cls-2 {
        clip-path: url(#clip-path);
      }

      .cls-3 {
        fill: #eb592d;
        stroke: #eb592d;
      }

      .cls-3, .cls-4, .cls-5, .cls-6 {
        stroke-width: 2px;
      }

      .cls-4 {
        fill: #4caf50;
        stroke: #4caf50;
      }

      .cls-5 {
        fill: #e71a64;
        stroke: #e71a64;
      }

      .cls-6 {
        fill: #31a3dd;
        stroke: #31a3dd;
      }
    </style>
    <clipPath id="clip-path">
      <rect class="cls-1" width="507.955" height="370.866"/>
    </clipPath>
  </defs>
  <g id="Wiederholungsraster_2" data-name="Wiederholungsraster 2" class="cls-2" transform="translate(991.207 287.003)">
    <g id="Gruppe_2" data-name="Gruppe 2" transform="translate(-991.207 -287.003)">
      <path id="Pfad_1" data-name="Pfad 1" class="cls-3" d="M22.7,1.744l8.684,8.684V22.7L22.7,31.389H10.428L1.744,22.7V10.428l8.684-8.684H22.7M23.437,0H9.7L0,9.7V23.42l9.7,9.713H23.42l9.7-9.7V9.7L23.437,0Z" transform="matrix(-0.719, -0.695, 0.695, -0.719, 1208.184, 333.841)"/>
      <path id="Pfad_10" data-name="Pfad 10" class="cls-3" d="M22.7,1.744l8.684,8.684V22.7L22.7,31.389H10.428L1.744,22.7V10.428l8.684-8.684H22.7M23.437,0H9.7L0,9.7V23.42l9.7,9.713H23.42l9.7-9.7V9.7L23.437,0Z" transform="translate(1222.714 531.045) rotate(-120)"/>
      <path id="Pfad_5" data-name="Pfad 5" class="cls-3" d="M22.7,1.744l8.684,8.684V22.7L22.7,31.389H10.428L1.744,22.7V10.428l8.684-8.684H22.7M23.437,0H9.7L0,9.7V23.42l9.7,9.713H23.42l9.7-9.7V9.7L23.437,0Z" transform="matrix(-0.259, 0.966, -0.966, -0.259, 1388.925, 496.988)"/>
      <path id="Pfad_2" data-name="Pfad 2" class="cls-4" d="M29.786,1.752a1.582,1.582,0,0,1,1.577,1.577V29.786a1.582,1.582,0,0,1-1.577,1.577H3.329a1.582,1.582,0,0,1-1.577-1.577V3.329A1.582,1.582,0,0,1,3.329,1.752H29.786m0-1.752H3.329A3.328,3.328,0,0,0,0,3.329V29.786a3.328,3.328,0,0,0,3.329,3.329H29.786a3.328,3.328,0,0,0,3.329-3.329V3.329A3.328,3.328,0,0,0,29.786,0Z" transform="translate(1437.903 381.877)"/>
      <path id="Pfad_11" data-name="Pfad 11" class="cls-4" d="M29.786,1.752a1.582,1.582,0,0,1,1.577,1.577V29.786a1.582,1.582,0,0,1-1.577,1.577H3.329a1.582,1.582,0,0,1-1.577-1.577V3.329A1.582,1.582,0,0,1,3.329,1.752H29.786m0-1.752H3.329A3.328,3.328,0,0,0,0,3.329V29.786a3.328,3.328,0,0,0,3.329,3.329H29.786a3.328,3.328,0,0,0,3.329-3.329V3.329A3.328,3.328,0,0,0,29.786,0Z" transform="translate(1121.843 443.496) rotate(-60)"/>
      <path id="Pfad_7" data-name="Pfad 7" class="cls-4" d="M29.786,1.752a1.582,1.582,0,0,1,1.577,1.577V29.786a1.582,1.582,0,0,1-1.577,1.577H3.329a1.582,1.582,0,0,1-1.577-1.577V3.329A1.582,1.582,0,0,1,3.329,1.752H29.786m0-1.752H3.329A3.328,3.328,0,0,0,0,3.329V29.786a3.328,3.328,0,0,0,3.329,3.329H29.786a3.328,3.328,0,0,0,3.329-3.329V3.329A3.328,3.328,0,0,0,29.786,0Z" transform="translate(1036.443 632.653) rotate(150)"/>
      <path id="Pfad_3" data-name="Pfad 3" class="cls-5" d="M16.561,1.614a.688.688,0,0,1,.6.339L31.406,26.625a.651.651,0,0,1,0,.694.683.683,0,0,1-.6.339H2.313a.683.683,0,0,1-.6-.339.651.651,0,0,1,0-.694L15.964,1.952a.688.688,0,0,1,.6-.339m0-1.614a2.317,2.317,0,0,0-2,1.146L.312,25.834a2.3,2.3,0,0,0,2,3.453h28.5a2.309,2.309,0,0,0,2-3.453L18.546,1.146A2.272,2.272,0,0,0,16.561,0Z" transform="translate(1475.746 517.297) rotate(45)"/>
      <path id="Pfad_8" data-name="Pfad 8" class="cls-5" d="M16.561,1.614a.688.688,0,0,1,.6.339L31.406,26.625a.651.651,0,0,1,0,.694.683.683,0,0,1-.6.339H2.313a.683.683,0,0,1-.6-.339.651.651,0,0,1,0-.694L15.964,1.952a.688.688,0,0,1,.6-.339m0-1.614a2.317,2.317,0,0,0-2,1.146L.312,25.834a2.3,2.3,0,0,0,2,3.453h28.5a2.309,2.309,0,0,0,2-3.453L18.546,1.146A2.272,2.272,0,0,0,16.561,0Z" transform="matrix(-0.966, -0.259, 0.259, -0.966, 1434.63, 324.067)"/>
      <path id="Pfad_9" data-name="Pfad 9" class="cls-5" d="M16.561,1.614a.688.688,0,0,1,.6.339L31.406,26.625a.651.651,0,0,1,0,.694.683.683,0,0,1-.6.339H2.313a.683.683,0,0,1-.6-.339.651.651,0,0,1,0-.694L15.964,1.952a.688.688,0,0,1,.6-.339m0-1.614a2.317,2.317,0,0,0-2,1.146L.312,25.834a2.3,2.3,0,0,0,2,3.453h28.5a2.309,2.309,0,0,0,2-3.453L18.546,1.146A2.272,2.272,0,0,0,16.561,0Z" transform="matrix(0.966, -0.259, 0.259, 0.966, 1231.643, 620.777)"/>
      <path id="Pfad_4" data-name="Pfad 4" class="cls-6" d="M16.558,1.761a14.8,14.8,0,1,1-14.8,14.8,14.817,14.817,0,0,1,14.8-14.8m0-1.761A16.558,16.558,0,1,0,33.115,16.558,16.561,16.561,0,0,0,16.558,0Z" transform="translate(1281.895 381.683)"/>
      <path id="Pfad_6" data-name="Pfad 6" class="cls-6" d="M16.558,1.761a14.8,14.8,0,1,1-14.8,14.8,14.817,14.817,0,0,1,14.8-14.8m0-1.761A16.558,16.558,0,1,0,33.115,16.558,16.561,16.561,0,0,0,16.558,0Z" transform="translate(1454.674 641.312) rotate(150)"/>
      <path id="Pfad_12" data-name="Pfad 12" class="cls-6" d="M16.558,1.761a14.8,14.8,0,1,1-14.8,14.8,14.817,14.817,0,0,1,14.8-14.8m0-1.761A16.558,16.558,0,1,0,33.115,16.558,16.561,16.561,0,0,0,16.558,0Z" transform="translate(1135.674 595.312) rotate(150)"/>
    </g>
  </g>
</svg>
